<svg width="22" height="22" viewBox="0 0 22 22" fill="none" xmlns="http://www.w3.org/2000/svg">
<path d="M4.94995 17.6002C5.37269 17.1267 6.99683 14.501 10.9968 14.501C14.9968 14.501 16.6246 16.754 17.0499 17.3906M19.7999 11.0002C19.7999 15.8603 15.8601 19.8002 10.9999 19.8002C6.13984 19.8002 2.19995 15.8603 2.19995 11.0002C2.19995 6.14009 6.13984 2.2002 10.9999 2.2002C15.8601 2.2002 19.7999 6.14009 19.7999 11.0002ZM14.1522 8.00082C14.1522 6.32194 12.7349 4.95019 11.0002 4.95019C9.26554 4.95019 7.84821 6.32194 7.84821 8.00082C7.84821 9.67971 9.26554 11.0514 11.0002 11.0514C12.7349 11.0514 14.1522 9.67971 14.1522 8.00082Z" stroke="currentColor" stroke-width="1.5"/>
</svg>
