<svg width="22" height="22" viewBox="0 0 22 22" fill="none" xmlns="http://www.w3.org/2000/svg">
<path d="M13.7528 4.58252V6.41585" stroke="currentColor" stroke-width="1.65" stroke-linecap="round" stroke-linejoin="round"/>
<path d="M13.7528 4.58252V6.41585" stroke="currentColor" stroke-width="1.65" stroke-linecap="round" stroke-linejoin="round"/>
<path d="M13.7528 10.0825V11.9159" stroke="currentColor" stroke-width="1.65" stroke-linecap="round" stroke-linejoin="round"/>
<path d="M13.7528 10.0825V11.9159" stroke="currentColor" stroke-width="1.65" stroke-linecap="round" stroke-linejoin="round"/>
<path d="M13.7528 15.5825V17.4159" stroke="currentColor" stroke-width="1.65" stroke-linecap="round" stroke-linejoin="round"/>
<path d="M13.7528 15.5825V17.4159" stroke="currentColor" stroke-width="1.65" stroke-linecap="round" stroke-linejoin="round"/>
<path d="M4.58333 4.58252H17.4167C18.4292 4.58252 19.25 5.40333 19.25 6.41585V9.16585C18.2375 9.16585 17.4167 9.98666 17.4167 10.9992C17.4167 12.0117 18.2375 12.8325 19.25 12.8325V15.5825C19.25 16.595 18.4292 17.4159 17.4167 17.4159H4.58333C3.57081 17.4159 2.75 16.595 2.75 15.5825V12.8325C3.76252 12.8325 4.58333 12.0117 4.58333 10.9992C4.58333 9.98666 3.76252 9.16585 2.75 9.16585V6.41585C2.75 5.40333 3.57081 4.58252 4.58333 4.58252" stroke="currentColor" stroke-width="1.65" stroke-linecap="round" stroke-linejoin="round"/>
<path d="M4.58333 4.58252H17.4167C18.4292 4.58252 19.25 5.40333 19.25 6.41585V9.16585C18.2375 9.16585 17.4167 9.98666 17.4167 10.9992C17.4167 12.0117 18.2375 12.8325 19.25 12.8325V15.5825C19.25 16.595 18.4292 17.4159 17.4167 17.4159H4.58333C3.57081 17.4159 2.75 16.595 2.75 15.5825V12.8325C3.76252 12.8325 4.58333 12.0117 4.58333 10.9992C4.58333 9.98666 3.76252 9.16585 2.75 9.16585V6.41585C2.75 5.40333 3.57081 4.58252 4.58333 4.58252" stroke="currentColor" stroke-width="1.65" stroke-linecap="round" stroke-linejoin="round"/>
</svg>
