<svg width="22" height="22" viewBox="0 0 22 22" fill="none" xmlns="http://www.w3.org/2000/svg">
<ellipse cx="8.24723" cy="6.41667" rx="3.66667" ry="3.66667" stroke="currentColor" stroke-width="1.65" stroke-linecap="round" stroke-linejoin="round"/>
<ellipse cx="8.24723" cy="6.41667" rx="3.66667" ry="3.66667" stroke="currentColor" stroke-width="1.65" stroke-linecap="round" stroke-linejoin="round"/>
<path d="M2.75 19.25V17.4167C2.75 15.3916 4.39162 13.75 6.41667 13.75H10.0833C12.1084 13.75 13.75 15.3916 13.75 17.4167V19.25" stroke="currentColor" stroke-width="1.65" stroke-linecap="round" stroke-linejoin="round"/>
<path d="M2.75 19.25V17.4167C2.75 15.3916 4.39162 13.75 6.41667 13.75H10.0833C12.1084 13.75 13.75 15.3916 13.75 17.4167V19.25" stroke="currentColor" stroke-width="1.65" stroke-linecap="round" stroke-linejoin="round"/>
<path d="M14.6694 2.86816C16.2919 3.28357 17.4266 4.74549 17.4266 6.42025C17.4266 8.09501 16.2919 9.55693 14.6694 9.97233" stroke="currentColor" stroke-width="1.65" stroke-linecap="round" stroke-linejoin="round"/>
<path d="M14.6694 2.86816C16.2919 3.28357 17.4266 4.74549 17.4266 6.42025C17.4266 8.09501 16.2919 9.55693 14.6694 9.97233" stroke="currentColor" stroke-width="1.65" stroke-linecap="round" stroke-linejoin="round"/>
<path d="M19.25 19.2502V17.4169C19.2404 15.7527 18.1113 14.3037 16.5 13.8877" stroke="currentColor" stroke-width="1.65" stroke-linecap="round" stroke-linejoin="round"/>
<path d="M19.25 19.2502V17.4169C19.2404 15.7527 18.1113 14.3037 16.5 13.8877" stroke="currentColor" stroke-width="1.65" stroke-linecap="round" stroke-linejoin="round"/>
</svg>
