<svg width="22" height="22" viewBox="0 0 22 22" fill="none" xmlns="http://www.w3.org/2000/svg">
<path d="M11 2.8125C11.2344 2.8125 11.4629 2.88866 11.6504 3.0293L18.0664 7.8418C18.2009 7.94268 18.3105 8.07326 18.3857 8.22363C18.4609 8.37396 18.4999 8.53994 18.5 8.70801V17.417C18.4999 17.7042 18.3857 17.9795 18.1826 18.1826C17.9795 18.3857 17.7042 18.4999 17.417 18.5H13.8418C13.7734 18.5 13.7076 18.473 13.6592 18.4248C13.6107 18.3764 13.583 18.3097 13.583 18.2412V13.75C13.583 13.0649 13.3116 12.4073 12.8271 11.9229C12.3427 11.4384 11.6851 11.167 11 11.167C10.3149 11.167 9.65732 11.4384 9.17285 11.9229C8.68838 12.4073 8.41699 13.0649 8.41699 13.75V18.2412C8.41699 18.3097 8.38927 18.3764 8.34082 18.4248C8.29241 18.473 8.22657 18.5 8.1582 18.5H4.58301C4.29581 18.4999 4.02047 18.3857 3.81738 18.1826C3.6143 17.9795 3.50009 17.7042 3.5 17.417V8.70801C3.50005 8.53994 3.53909 8.37396 3.61426 8.22363C3.68947 8.07326 3.79909 7.94268 3.93359 7.8418L10.3496 3.0293C10.5371 2.88866 10.7656 2.8125 11 2.8125Z" stroke="currentColor" stroke-width="1.5"/>
</svg>
