<svg width="22" height="22" viewBox="0 0 22 22" fill="none" xmlns="http://www.w3.org/2000/svg">
<g clip-path="url(#clip0_5_2932)">
<path d="M6.41943 17.2495C7.01814 17.2495 7.50244 17.7338 7.50244 18.3325C7.50244 18.9312 7.01814 19.4155 6.41943 19.4155C5.82562 19.4155 5.34521 18.9361 5.34521 18.3325C5.34521 17.7289 5.82562 17.2495 6.41943 17.2495ZM15.5864 17.2495C16.185 17.2497 16.6694 17.7339 16.6694 18.3325C16.6694 18.9311 16.185 19.4154 15.5864 19.4155C14.9926 19.4155 14.5122 18.9361 14.5122 18.3325C14.5122 17.7289 14.9926 17.2495 15.5864 17.2495ZM3.43799 2.58252L4.10596 3.98779L4.30908 4.41553H18.3364C18.3804 4.41561 18.4225 4.43338 18.4536 4.46436C18.4849 4.49561 18.5024 4.53832 18.5024 4.58252C18.5024 4.61411 18.4944 4.63652 18.4868 4.6499L18.481 4.66064L15.2065 10.605C15.0166 10.9433 14.6603 11.1654 14.2573 11.1655H6.98389L6.77002 11.5552L5.94971 13.0493C5.886 13.1644 5.85032 13.2843 5.83643 13.4009L5.82959 13.52L5.83447 13.6206C5.88449 14.1156 6.30049 14.4995 6.80908 14.4995H16.6694V14.8325H6.41943C5.82084 14.8325 5.3366 14.3481 5.33643 13.7495C5.33643 13.5608 5.38297 13.3824 5.47119 13.2173L6.70459 10.981L6.89014 10.644L6.72607 10.2974L3.43018 3.34424L3.22705 2.91553H1.66943V2.58252H3.43799Z" stroke="currentColor" stroke-width="1.5"/>
</g>
<defs>
<clipPath id="clip0_5_2932">
<rect width="22" height="22" fill="white"/>
</clipPath>
</defs>
</svg>
