<svg width="22" height="22" viewBox="0 0 22 22" fill="none" xmlns="http://www.w3.org/2000/svg">
<path d="M11 10.7422V21.0439L10.3125 21.3877L1.375 16.9297V5.75781L10.3125 1.28906L19.25 5.75781V13.75H17.875V7.30469L11 10.7422ZM10.3125 2.83594L7.72363 4.125L14.3945 7.49805L17.0264 6.1875L10.3125 2.83594ZM9.625 19.5078V10.7422L2.75 7.30469V16.0703L9.625 19.5078ZM3.59863 6.1875L10.3125 9.53906L12.8691 8.27148L6.1875 4.89844L3.59863 6.1875ZM15.125 19.25V17.875H22V19.25H15.125ZM15.125 15.125H22V16.5H15.125V15.125ZM12.375 22V20.625H13.75V22H12.375ZM12.375 16.5V15.125H13.75V16.5H12.375ZM12.375 19.25V17.875H13.75V19.25H12.375ZM15.125 22V20.625H22V22H15.125Z" fill="currentColor"/>
</svg>
